<svg aria-hidden="true" style="position: absolute; width: 0; height: 0; overflow: hidden;" version="1.1" xmlns="http://www.w3.org/2000/svg" xmlns:xlink="http://www.w3.org/1999/xlink">
<defs>
<symbol id="icon-star" viewBox="0 0 32 32">
<path d="M28 13h-9.188l-2.813-9-2.813 9h-9.188l7.444 5.581-2.944 9.419 7.5-6 7.5 6-2.944-9.419z"></path>
</symbol>
<symbol id="icon-eye" viewBox="0 0 32 32">
<path d="M16 8c-5.119 0-9.106 3.050-14 8 4.213 4.231 7.75 8 14 8 6.244 0 10.837-4.775 14-7.913-3.238-3.675-7.825-8.088-14-8.088zM16 21.706c-3.088 0-5.6-2.563-5.6-5.706 0-3.15 2.513-5.706 5.6-5.706s5.6 2.563 5.6 5.706c0 3.15-2.512 5.706-5.6 5.706z"></path>
<path d="M16 14c0-0.494 0.181-0.944 0.475-1.294-0.156-0.025-0.313-0.037-0.475-0.037-1.8 0-3.269 1.494-3.269 3.331s1.469 3.331 3.269 3.331 3.269-1.494 3.269-3.331c0-0.144-0.012-0.287-0.025-0.431-0.344 0.269-0.769 0.431-1.238 0.431-1.113 0-2.006-0.894-2.006-2z"></path>
</symbol>
<symbol id="icon-trash" viewBox="0 0 32 32">
<path d="M21.313 8v-1.813c0-1.194-0.906-2.188-2.156-2.188h-6.319c-1.244 0-2.15 0.994-2.15 2.188v1.813h-5.688v2h0.575c0 0 0.338 0.037 0.513 0.213s0.244 0.563 0.244 0.563l1.188 15.106c0.094 1.837 0.094 2.119 2.25 2.119h12.463c2.156 0 2.156-0.275 2.25-2.113l1.188-15.1c0 0 0.069-0.394 0.244-0.569s0.512-0.213 0.512-0.213h0.575v-2h-5.688v-0.006zM12 6.188c0-0.6 0.488-0.938 1.106-0.938h5.731c0.619 0 1.163 0.344 1.163 0.938v1.813h-8v-1.813zM11.469 24l-0.644-12h1.269l0.656 12h-1.281zM16.694 24h-1.375v-12h1.375v12zM20.544 24h-1.275l0.656-12h1.269l-0.65 12z"></path>
</symbol>
</defs>
</svg>
